{"accessors" : [{"bufferView" : 0, "byteOffset" : 0, "componentType" : 5123, "count" : 1080, "type" : "SCALAR", "max" : [880], "min" : [0]}, {"bufferView" : 1, "byteOffset" : 0, "componentType" : 5126, "count" : 881, "type" : "VEC3", "max" : [10, 10, 10], "min" : [-10, -10, -10], "name" : "POSITION"}, {"bufferView" : 1, "byteOffset" : 12, "componentType" : 5126, "count" : 881, "type" : "VEC3", "max" : [1.0000044107437134, 1.0000044107437134, 1.0000044107437134], "min" : [-1.0000044107437134, -1.0000044107437134, -1.0000044107437134], "name" : "NORMAL"}, {"bufferView" : 1, "byteOffset" : 24, "componentType" : 5126, "count" : 881, "type" : "VEC2", "max" : [0.949999988079071, 1], "min" : [0, 0], "name" : "TEXCOORD_0"}], "asset" : {"generator" : "Aspose.3D 22.10", "version" : "2.0"}, "buffers" : [{"uri" : "data:application/octet-stream;base64,", "byteLength" : 36728}], "bufferViews" : [{"buffer" : 0, "byteOffset" : 0, "byteLength" : 2160, "target" : 34963}, {"buffer" : 0, "byteOffset" : 2164, "byteLength" : 34560, "byteStride" : 32, "target" : 34962}], "materials" : [{"name" : "f00d1585-fa84-4823-ba8d-c9150749da07", "pbrMetallicRoughness" : {"baseColorFactor" : [0.9411764705882353, 0.11372549019607843, 0.11372549019607843, 1], "metallicFactor" : 0.304, "roughnessFactor" : 0.33}, "emissiveFactor" : [0, 0, 0], "alphaMode" : "OPAQUE", "doubleSided" : true}], "meshes" : [{"primitives" : [{"attributes" : {"POSITION" : 1, "NORMAL" : 2, "TEXCOORD_0" : 3}, "indices" : 0, "material" : 0, "mode" : 4}]}], "nodes" : [{"mesh" : 0, "name" : "no_transformations"}, {"children" : [0], "name" : "Node #2"}, {"children" : [1], "name" : ""}, {"children" : [2], "matrix" : [1, 0, 0, 0, 0, 0, -1, 0, 0, 1, 0, 0, 0, 0, 0, 1], "name" : "TransformZUpToYUp"}], "scene" : 0, "scenes" : [{"nodes" : [3]}]}